<?xml version="1.0" standalone="no"?>
<!DOCTYPE svg PUBLIC "-//W3C//DTD SVG 20010904//EN"
 "http://www.w3.org/TR/2001/REC-SVG-20010904/DTD/svg10.dtd">
<svg version="1.0" xmlns="http://www.w3.org/2000/svg"
 width="1280.000000pt" height="1168.000000pt" viewBox="0 0 1280.000000 1168.000000"
 preserveAspectRatio="xMidYMid meet">
<metadata>
Created by potrace 1.15, written by Peter Selinger 2001-2017
</metadata>
<g transform="translate(0.000000,1168.000000) scale(0.100000,-0.100000)"
fill="#009688" stroke="none">
<path d="M10625 11053 c-10 -3 -58 -22 -105 -43 -275 -121 -550 -170 -960
-170 -236 0 -482 7 -1325 40 -1174 45 -2089 57 -2475 31 -467 -30 -820 -75
-1165 -147 -1042 -218 -1804 -654 -2210 -1264 -372 -559 -441 -1367 -171
-1999 169 -393 535 -757 944 -936 645 -283 1474 -267 2375 45 282 97 609 248
882 407 l120 69 48 94 c34 66 46 101 42 118 -11 46 -129 221 -155 231 -35 14
-150 29 -173 23 -10 -3 -71 -34 -135 -69 -805 -446 -1510 -646 -2118 -603
-462 32 -790 167 -1068 438 -195 191 -319 413 -370 664 -73 358 -18 766 144
1063 242 442 757 776 1395 904 303 61 510 75 1018 68 489 -7 946 -31 1822 -97
143 -11 395 -28 560 -40 165 -11 336 -22 380 -25 258 -18 676 -36 1062 -47
713 -19 888 4 1104 148 89 59 186 151 429 405 214 224 295 319 331 389 48 93
19 233 -57 281 -35 21 -128 34 -169 22z"/>
<path d="M9535 9631 c-44 -15 -208 -83 -364 -149 -243 -103 -290 -127 -328
-164 -207 -200 -377 -709 -643 -1928 -119 -545 -290 -1275 -371 -1582 l-31
-116 -87 -6 c-214 -15 -729 -29 -1338 -35 -648 -6 -663 -6 -683 -26 -28 -29
-93 -266 -81 -298 14 -36 28 -43 141 -70 359 -87 863 -144 1664 -189 l228 -12
-6 -43 c-10 -73 -116 -510 -172 -708 -387 -1365 -920 -2145 -1628 -2380 -132
-44 -250 -64 -416 -72 -223 -9 -373 17 -527 92 -119 59 -201 137 -249 239
-103 217 -52 471 147 739 136 181 493 522 901 861 l108 88 27 84 c27 82 27 85
10 117 -10 18 -46 63 -81 101 l-64 68 -63 -7 c-121 -13 -131 -18 -311 -152
-648 -486 -1119 -974 -1381 -1431 -161 -282 -251 -611 -232 -852 24 -320 159
-557 411 -725 253 -170 593 -221 954 -144 481 104 1132 471 1690 953 826 716
1451 1708 1852 2943 l63 193 35 -7 c73 -15 401 -8 505 11 210 38 361 94 500
184 217 141 328 299 342 487 7 88 -16 143 -71 169 -47 22 -159 21 -326 -4
-221 -33 -268 -39 -415 -50 -77 -6 -185 -15 -240 -19 -55 -5 -101 -8 -102 -7
-2 1 172 625 478 1716 191 679 340 1227 421 1545 58 231 71 295 72 365 1 73
-3 93 -24 134 -14 27 -42 63 -63 80 -55 44 -141 47 -252 7z"/>
</g>
</svg>
